<?xml version="1.0" encoding="UTF-8"?>
<svg id="Layer_2" data-name="Layer 2" xmlns="http://www.w3.org/2000/svg" xmlns:xlink="http://www.w3.org/1999/xlink" viewBox="0 0 127.01 40.18">
  <defs>
    <style>
      .cls-1 {
        fill: url(#linear-gradient);
        stroke-width: 0px;
      }
    </style>
    <linearGradient id="linear-gradient" x1="21.86" y1="52.46" x2="104.66" y2="-17.02" gradientUnits="userSpaceOnUse">
      <stop offset="0" stop-color="#3442ff"/>
      <stop offset=".25" stop-color="#3641fd"/>
      <stop offset=".4" stop-color="#3e41f9"/>
      <stop offset=".52" stop-color="#4c3ff1"/>
      <stop offset=".63" stop-color="#603ee7"/>
      <stop offset=".72" stop-color="#7a3cd9"/>
      <stop offset=".81" stop-color="#9a39c9"/>
      <stop offset=".9" stop-color="#c036b5"/>
      <stop offset=".97" stop-color="#ea329e"/>
      <stop offset="1" stop-color="#fc3196"/>
    </linearGradient>
  </defs>
  <g id="Layer_1-2" data-name="Layer 1">
    <path class="cls-1" d="m127.01,12.93v4.53h-10.92l-3.31-5.74h-6.62l-5.46-9.45,3.9-2.27,6.17,10.68,6.17-10.68,3.92,2.27-6.17,10.66h12.33Zm-6.16,15.21l-8.78-15.2h-17.55v4.52h12.33s-11.8,20.45-11.8,20.45l3.92,2.26,11.8-20.45,6.17,10.68,3.92-2.26Zm-101.74,1.71h6.93v-2.1h-4.71v-1.91h4.41v-2.1h-4.41v-1.72h4.71v-2.1h-6.93v9.93Zm13.09-3.81c-.46-.75-1.14-1.12-2.03-1.12v-.07c.9,0,1.57-.37,2.03-1.11l2.61-3.81h-2.47l-3.27,4.85h-.09v-4.85h-2.23v9.93h2.23v-4.86h.07l3.29,4.86h2.47l-2.61-3.81Zm3.32,3.81h6.93v-2.1h-4.71v-1.91h4.41v-2.1h-4.41v-1.72h4.71v-2.1h-6.93v9.93Zm12.25-5.95c-.11.31-.2.65-.26,1.01-.06.36-.09.74-.09,1.13h-.07c0-.39-.03-.76-.09-1.13s-.15-.7-.28-1.01l-1.63-3.97h-2.35l2.55,6.24h.72v3.7h2.21v-3.7h.74l2.55-6.24h-2.34l-1.66,3.97Zm8.9,5.94h2.23v-7.83h2.89v-2.1h-8v2.1h2.88v7.83Zm5.8.01h6.93v-2.1h-4.71v-1.91h4.41v-2.1h-4.41v-1.72h4.71v-2.1h-6.93v9.93Zm15.21-.95c.78-.7,1.23-1.71,1.35-3.03h-2.21c-.17,1.32-.95,1.98-2.33,1.98-1.66,0-2.5-.99-2.5-2.98s.83-2.96,2.5-2.96c1.36,0,2.14.66,2.33,1.97h2.21c-.1-1.31-.55-2.32-1.33-3.02-.78-.7-1.85-1.05-3.21-1.05-1.52,0-2.69.43-3.5,1.3-.81.87-1.22,2.12-1.22,3.76s.41,2.9,1.22,3.77c.81.87,1.98,1.3,3.5,1.3,1.35,0,2.41-.35,3.19-1.05Zm2.03.95h2.23v-3.77h5.1v3.77h2.23v-9.94h-2.23v4.07h-5.1v-4.07h-2.23v9.94Zm-76.84-.01h2.23v-7.83h2.89v-2.1H0v2.1h2.88v7.83Zm5.8.01h2.23v-3.77h5.1v3.77h2.23v-9.94h-2.23v4.07h-5.1v-4.07h-2.23v9.94ZM85.42,5.66h-3.2v2.37h3.2c1.11,0,2.01.9,2.01,2.01s-.9,2.01-2.01,2.01h-3.2v2.37h3.2c2.41,0,4.38-1.97,4.38-4.38s-1.97-4.38-4.38-4.38Zm-8.74-.04h-3.92l2.24-4.16-2.08-1.13-4.13,7.65h7.89c1.12,0,2.03.91,2.03,2.03s-.91,2.03-2.03,2.03h-10.1v-2.85c0-1.96-1.59-3.55-3.55-3.55s-3.55,1.59-3.55,3.55v2.85h-17.28v2.37h19.64v-5.21c0-.65.53-1.18,1.18-1.18s1.18.53,1.18,1.18v5.21h12.47c2.43,0,4.4-1.97,4.4-4.4s-1.97-4.4-4.4-4.4Zm-46.86,4.4c0-2.43-1.97-4.4-4.4-4.4h-3.92l2.25-4.16-2.08-1.13-4.13,7.65h7.89c1.12,0,2.03.91,2.03,2.03s-.91,2.03-2.03,2.03H0v2.37h38.68v-2.37h-9.36c.32-.61.5-1.3.5-2.03Zm24.16,8.16h7.77v-2.37h-7.77v2.37ZM85.6,1.68h-2.77v2.37h2.77V1.68Zm-54.69,7.49h7.77v-2.37h-7.77v2.37Z"/>
  </g>
</svg>